# MagicaVoxel @ Ephtracy

# group
o 

# material
mtllib глаз.mtl
usemtl palette

# normals
vn -1 0 0
vn 1 0 0
vn 0 0 1
vn 0 0 -1
vn 0 -1 0
vn 0 1 0

# texcoords
vt 0.787109 0.5
vt 0.802734 0.5
vt 0.806641 0.5
vt 0.962891 0.5

# verts
v -1.5 0 1.4
v -1.5 0 -1.4
v -1.5 0.2 1.5
v -1.5 0.2 1.4
v -1.5 0.2 -1.4
v -1.5 0.2 -1.5
v -1.5 2.8 -1.4
v -1.5 2.8 -1.5
v -1.5 2.9 1.5
v -1.5 2.9 1.2
v -1.5 3 1.2
v -1.5 3 -1.4
v -1.4 0 1.5
v -1.4 0 1.4
v -1.4 0 -1.4
v -1.4 0 -1.5
v -1.4 0.2 1.5
v -1.4 0.2 1.4
v -1.4 0.2 -1.4
v -1.4 0.2 -1.5
v -1.4 2.8 -1.4
v -1.4 2.8 -1.5
v -1.4 2.9 1.5
v -1.4 2.9 1.2
v -1.4 3 1.5
v -1.4 3 1.2
v -1.4 3 -1.4
v -1.4 3 -1.5
v 1.4 0 1.5
v 1.4 0 1.4
v 1.4 0 -1.4
v 1.4 0 -1.5
v 1.4 0.2 1.5
v 1.4 0.2 1.4
v 1.4 0.2 -1.4
v 1.4 0.2 -1.5
v 1.4 2.8 -1.4
v 1.4 2.8 -1.5
v 1.4 2.9 1.5
v 1.4 2.9 1.3
v 1.4 3 1.5
v 1.4 3 1.3
v 1.4 3 -1.4
v 1.4 3 -1.5
v 1.5 0 1.4
v 1.5 0 -1.4
v 1.5 0.2 1.5
v 1.5 0.2 1.4
v 1.5 0.2 -1.4
v 1.5 0.2 -1.5
v 1.5 2.8 -1.4
v 1.5 2.8 -1.5
v 1.5 2.9 1.5
v 1.5 2.9 1.3
v 1.5 3 1.3
v 1.5 3 -1.4
v -1.5 0.2 1.5
v -1.5 2.9 1.5
v -1.4 0 1.5
v -1.4 0.2 1.5
v -1.4 2.9 1.5
v -1.4 3 1.5
v -0.9 0.6 1.5
v -0.9 2.4 1.5
v -0.7 0.8 1.5
v -0.7 2.2 1.5
v -0.3 1.1 1.5
v -0.3 1.7 1.5
v 0.3 1.1 1.5
v 0.3 1.7 1.5
v 0.7 0.8 1.5
v 0.7 2.2 1.5
v 0.9 0.6 1.5
v 0.9 2.4 1.5
v 1.4 0 1.5
v 1.4 0.2 1.5
v 1.4 2.9 1.5
v 1.4 3 1.5
v 1.5 0.2 1.5
v 1.5 2.9 1.5
v -1.5 0 1.4
v -1.5 0.2 1.4
v -1.4 0 1.4
v -1.4 0.2 1.4
v 1.4 0 1.4
v 1.4 0.2 1.4
v 1.5 0 1.4
v 1.5 0.2 1.4
v 1.4 2.9 1.3
v 1.4 3 1.3
v 1.5 2.9 1.3
v 1.5 3 1.3
v -1.5 2.9 1.2
v -1.5 3 1.2
v -1.4 2.9 1.2
v -1.4 3 1.2
v -1.5 0 -1.4
v -1.5 0.2 -1.4
v -1.5 2.8 -1.4
v -1.5 3 -1.4
v -1.4 0 -1.4
v -1.4 0.2 -1.4
v -1.4 2.8 -1.4
v -1.4 3 -1.4
v 1.4 0 -1.4
v 1.4 0.2 -1.4
v 1.4 2.8 -1.4
v 1.4 3 -1.4
v 1.5 0 -1.4
v 1.5 0.2 -1.4
v 1.5 2.8 -1.4
v 1.5 3 -1.4
v -1.5 0.2 -1.5
v -1.5 2.8 -1.5
v -1.4 0 -1.5
v -1.4 0.2 -1.5
v -1.4 2.8 -1.5
v -1.4 3 -1.5
v 1.4 0 -1.5
v 1.4 0.2 -1.5
v 1.4 2.8 -1.5
v 1.4 3 -1.5
v 1.5 0.2 -1.5
v 1.5 2.8 -1.5
v -1.4 0 1.5
v 1.4 0 1.5
v -1.5 0 1.4
v -1.4 0 1.4
v 1.4 0 1.4
v 1.5 0 1.4
v -1.5 0 -1.4
v -1.4 0 -1.4
v 1.4 0 -1.4
v 1.5 0 -1.4
v -1.4 0 -1.5
v 1.4 0 -1.5
v -1.5 0.2 1.5
v -1.4 0.2 1.5
v 1.4 0.2 1.5
v 1.5 0.2 1.5
v -1.5 0.2 1.4
v -1.4 0.2 1.4
v 1.4 0.2 1.4
v 1.5 0.2 1.4
v -1.5 0.2 -1.4
v -1.4 0.2 -1.4
v 1.4 0.2 -1.4
v 1.5 0.2 -1.4
v -1.5 0.2 -1.5
v -1.4 0.2 -1.5
v 1.4 0.2 -1.5
v 1.5 0.2 -1.5
v -1.5 2.8 -1.4
v -1.4 2.8 -1.4
v 1.4 2.8 -1.4
v 1.5 2.8 -1.4
v -1.5 2.8 -1.5
v -1.4 2.8 -1.5
v 1.4 2.8 -1.5
v 1.5 2.8 -1.5
v -1.5 2.9 1.5
v -1.4 2.9 1.5
v 1.4 2.9 1.5
v 1.5 2.9 1.5
v 1.4 2.9 1.3
v 1.5 2.9 1.3
v -1.5 2.9 1.2
v -1.4 2.9 1.2
v -1.4 3 1.5
v 1.4 3 1.5
v 1.4 3 1.3
v 1.5 3 1.3
v -1.5 3 1.2
v -1.4 3 1.2
v -1.5 3 -1.4
v -1.4 3 -1.4
v 1.4 3 -1.4
v 1.5 3 -1.4
v -1.4 3 -1.5
v 1.4 3 -1.5

# faces
f 4/4/1 2/4/1 1/4/1
f 5/4/1 2/4/1 4/4/1
f 7/4/1 4/4/1 3/4/1
f 7/4/1 6/4/1 5/4/1
f 7/4/1 5/4/1 4/4/1
f 8/4/1 6/4/1 7/4/1
f 9/4/1 7/4/1 3/4/1
f 10/4/1 7/4/1 9/4/1
f 11/4/1 7/4/1 10/4/1
f 12/4/1 7/4/1 11/4/1
f 17/4/1 14/4/1 13/4/1
f 18/4/1 14/4/1 17/4/1
f 19/4/1 16/4/1 15/4/1
f 20/4/1 16/4/1 19/4/1
f 25/4/1 24/4/1 23/4/1
f 26/4/1 24/4/1 25/4/1
f 27/4/1 22/4/1 21/4/1
f 28/4/1 22/4/1 27/4/1
f 29/4/2 30/4/2 33/4/2
f 33/4/2 30/4/2 34/4/2
f 31/4/2 32/4/2 35/4/2
f 35/4/2 32/4/2 36/4/2
f 39/4/2 40/4/2 41/4/2
f 41/4/2 40/4/2 42/4/2
f 37/4/2 38/4/2 43/4/2
f 43/4/2 38/4/2 44/4/2
f 45/4/2 46/4/2 48/4/2
f 48/4/2 46/4/2 49/4/2
f 47/4/2 48/4/2 51/4/2
f 49/4/2 50/4/2 51/4/2
f 48/4/2 49/4/2 51/4/2
f 51/4/2 50/4/2 52/4/2
f 47/4/2 51/4/2 53/4/2
f 53/4/2 51/4/2 54/4/2
f 54/4/2 51/4/2 55/4/2
f 55/4/2 51/4/2 56/4/2
f 60/4/3 58/4/3 57/4/3
f 61/4/3 58/4/3 60/4/3
f 63/4/3 60/4/3 59/4/3
f 63/4/3 62/4/3 61/4/3
f 63/4/3 61/4/3 60/4/3
f 64/4/3 62/4/3 63/4/3
f 65/3/3 64/3/3 63/3/3
f 66/3/3 64/3/3 65/3/3
f 67/2/3 66/2/3 65/2/3
f 68/2/3 66/2/3 67/2/3
f 69/2/3 67/2/3 65/2/3
f 69/1/3 68/1/3 67/1/3
f 70/2/3 66/2/3 68/2/3
f 70/1/3 68/1/3 69/1/3
f 71/3/3 65/3/3 63/3/3
f 71/2/3 69/2/3 65/2/3
f 71/2/3 70/2/3 69/2/3
f 72/2/3 66/2/3 70/2/3
f 72/2/3 70/2/3 71/2/3
f 72/3/3 64/3/3 66/3/3
f 73/4/3 63/4/3 59/4/3
f 73/3/3 71/3/3 63/3/3
f 73/3/3 72/3/3 71/3/3
f 74/3/3 64/3/3 72/3/3
f 74/3/3 72/3/3 73/3/3
f 74/4/3 62/4/3 64/4/3
f 75/4/3 73/4/3 59/4/3
f 75/4/3 74/4/3 73/4/3
f 76/4/3 74/4/3 75/4/3
f 77/4/3 62/4/3 74/4/3
f 77/4/3 74/4/3 76/4/3
f 78/4/3 62/4/3 77/4/3
f 79/4/3 77/4/3 76/4/3
f 80/4/3 77/4/3 79/4/3
f 83/4/3 82/4/3 81/4/3
f 84/4/3 82/4/3 83/4/3
f 87/4/3 86/4/3 85/4/3
f 88/4/3 86/4/3 87/4/3
f 91/4/3 90/4/3 89/4/3
f 92/4/3 90/4/3 91/4/3
f 95/4/3 94/4/3 93/4/3
f 96/4/3 94/4/3 95/4/3
f 97/4/4 98/4/4 101/4/4
f 101/4/4 98/4/4 102/4/4
f 99/4/4 100/4/4 103/4/4
f 103/4/4 100/4/4 104/4/4
f 105/4/4 106/4/4 109/4/4
f 109/4/4 106/4/4 110/4/4
f 107/4/4 108/4/4 111/4/4
f 111/4/4 108/4/4 112/4/4
f 113/4/4 114/4/4 116/4/4
f 116/4/4 114/4/4 117/4/4
f 115/4/4 116/4/4 119/4/4
f 117/4/4 118/4/4 119/4/4
f 116/4/4 117/4/4 119/4/4
f 119/4/4 118/4/4 120/4/4
f 120/4/4 118/4/4 121/4/4
f 121/4/4 118/4/4 122/4/4
f 120/4/4 121/4/4 123/4/4
f 123/4/4 121/4/4 124/4/4
f 128/4/5 126/4/5 125/4/5
f 129/4/5 126/4/5 128/4/5
f 131/4/5 128/4/5 127/4/5
f 131/4/5 130/4/5 129/4/5
f 131/4/5 129/4/5 128/4/5
f 132/4/5 130/4/5 131/4/5
f 133/4/5 130/4/5 132/4/5
f 134/4/5 130/4/5 133/4/5
f 135/4/5 133/4/5 132/4/5
f 136/4/5 133/4/5 135/4/5
f 141/4/5 138/4/5 137/4/5
f 142/4/5 138/4/5 141/4/5
f 143/4/5 140/4/5 139/4/5
f 144/4/5 140/4/5 143/4/5
f 149/4/5 146/4/5 145/4/5
f 150/4/5 146/4/5 149/4/5
f 151/4/5 148/4/5 147/4/5
f 152/4/5 148/4/5 151/4/5
f 153/4/6 154/4/6 157/4/6
f 157/4/6 154/4/6 158/4/6
f 155/4/6 156/4/6 159/4/6
f 159/4/6 156/4/6 160/4/6
f 163/4/6 164/4/6 165/4/6
f 165/4/6 164/4/6 166/4/6
f 161/4/6 162/4/6 167/4/6
f 167/4/6 162/4/6 168/4/6
f 169/4/6 170/4/6 171/4/6
f 169/4/6 171/4/6 174/4/6
f 171/4/6 172/4/6 174/4/6
f 173/4/6 174/4/6 175/4/6
f 174/4/6 172/4/6 176/4/6
f 175/4/6 174/4/6 176/4/6
f 176/4/6 172/4/6 177/4/6
f 177/4/6 172/4/6 178/4/6
f 176/4/6 177/4/6 179/4/6
f 179/4/6 177/4/6 180/4/6
